<svg id="file_type_css_icon_130661" xmlns="http://www.w3.org/2000/svg" width="172.408" height="193.22" viewBox="0 0 172.408 193.22">
  <path id="Path_2" data-name="Path 2" d="M41.452,188,25.767,14.1H198.176L182.47,187.973l-70.6,19.343Z" transform="translate(-25.767 -14.096)" fill="#1572b6"/>
  <path id="Path_3" data-name="Path 3" d="M112.767,196.342l57.582-15.964L183.9,28.622H112.767Z" transform="translate(-27.359 -14.096)" fill="#33a9dc"/>
  <path id="Path_4" data-name="Path 4" d="M112.767,92.97h28.826l1.988-22.307H112.767V48.878h54.622l-.522,5.843-5.349,60.035H112.767Z" transform="translate(-27.359 -14.096)" fill="#fff"/>
  <path id="Path_5" data-name="Path 5" d="M112.9,149.544l-.1.028-24.259-6.555-1.551-17.373H65.123l3.052,34.2,44.621,12.39.106-.028Z" transform="translate(-27.359 -14.096)" fill="#ebebeb"/>
  <path id="Path_6" data-name="Path 6" d="M139.74,113.832,137.118,143l-24.294,6.555v22.666l44.656-12.376.331-3.679,3.785-42.337Z" transform="translate(-27.359 -14.096)" fill="#fff"/>
  <path id="Path_7" data-name="Path 7" d="M112.845,48.878V70.663H60.225l-.437-4.9L58.794,54.72l-.522-5.843Z" transform="translate(-27.359 -14.096)" fill="#ebebeb"/>
  <path id="Path_8" data-name="Path 8" d="M112.767,92.97v21.785H88.811l-.437-4.9-.987-11.044-.522-5.843Z" transform="translate(-27.359 -14.096)" fill="#ebebeb"/>
</svg>
