<svg id="file_type_html_icon_130541" xmlns="http://www.w3.org/2000/svg" width="174.594" height="198" viewBox="0 0 174.594 198">
  <path id="Path_9" data-name="Path 9" d="M41.736,192.35,25.846,14.143H200.44L184.529,192.322l-71.492,19.821Z" transform="translate(-25.846 -14.143)" fill="#e44f26"/>
  <path id="Path_10" data-name="Path 10" d="M113.143,197l57.774-16.017L184.508,28.717H113.143Z" transform="translate(-25.846 -14.143)" fill="#f1662a"/>
  <path id="Path_11" data-name="Path 11" d="M113.143,94.807H84.221L82.227,72.426h30.916V50.568h-54.8l.523,5.869,5.367,60.227h48.913Z" transform="translate(-25.846 -14.143)" fill="#ebebeb"/>
  <path id="Path_12" data-name="Path 12" d="M113.143,151.569l-.1.028L88.7,145.028,87.148,127.6H65.206l3.062,34.311,44.776,12.432.1-.028Z" transform="translate(-25.846 -14.143)" fill="#ebebeb"/>
  <path id="Path_13" data-name="Path 13" d="M113.065,94.807v21.858h26.914l-2.532,28.349-24.382,6.576v22.742l44.812-12.424.325-3.691,5.134-57.54.537-5.869H113.065Z" transform="translate(-25.846 -14.143)" fill="#fff"/>
  <path id="Path_14" data-name="Path 14" d="M113.065,50.568V72.426h52.8l.438-4.908,1-11.081.523-5.869Z" transform="translate(-25.846 -14.143)" fill="#fff"/>
</svg>
